Coordinates
version=1
nRows=7
nColumns=40
inDegrees=yes

Units are S.I. units (second, meters, Newtons, ...)
If the header above contains a line with 'inDegrees', this indicates whether rotational values are in degrees (yes) or radians (no).

endheader
time	pelvis_tilt	pelvis_list	pelvis_rotation	pelvis_tx	pelvis_ty	pelvis_tz	hip_flexion_r	hip_adduction_r	hip_rotation_r	knee_angle_r	knee_angle_r_beta	ankle_angle_r	subtalar_angle_r	mtp_angle_r	hip_flexion_l	hip_adduction_l	hip_rotation_l	knee_angle_l	knee_angle_l_beta	ankle_angle_l	subtalar_angle_l	mtp_angle_l	lumbar_extension	lumbar_bending	lumbar_rotation	arm_flex_r	arm_add_r	arm_rot_r	elbow_flex_r	pro_sup_r	wrist_flex_r	wrist_dev_r	arm_flex_l	arm_add_l	arm_rot_l	elbow_flex_l	pro_sup_l	wrist_flex_l	wrist_dev_l
      1.23500000	     -5.68821573	      1.34718822	      8.90853906	      0.96073664	      0.88853404	      0.19966475	     32.15912643	     -8.55790569	    -28.19566921	      6.74400633	      0.11770512	     -0.64845360	     12.95432058	      0.00000000	    -15.44613566	      0.04996605	    -14.05320341	      7.58485411	      0.13238068	      5.62525463	     15.42985441	      0.00000000	     14.11553766	      0.69782250	     -4.08061652	     43.93330851	    -16.11823049	     43.93330851	     75.18370452	     44.99576058	      0.00000000	      0.00000000	     43.93330851	    -16.11823049	     43.93330851	     75.18370452	     44.99576058	      0.00000000	      0.00000000
      1.24000000	     -5.51586889	      1.15686478	      9.05698350	      0.96835356	      0.88818902	      0.19986387	     31.87985325	     -8.39589101	    -28.01536509	      7.08881900	      0.12372323	     -0.84721284	     12.38725935	      0.00000000	    -15.88233223	     -0.37734806	    -13.99930388	      7.93314674	      0.13845953	      5.14105386	     15.27330251	      0.00000000	     14.01115766	      0.99205143	     -4.28217302	     43.93384323	    -16.11730401	     43.93384323	     75.18340668	     44.99577966	      0.00000000	      0.00000000	     43.93384323	    -16.11730401	     43.93384323	     75.18340668	     44.99577966	      0.00000000	      0.00000000
      1.24500000	     -5.24634568	      0.88288432	      9.22802187	      0.97599170	      0.88805813	      0.20000790	     31.41600133	     -8.10585397	    -27.78027940	      7.32297552	      0.12781003	     -1.23508755	     11.50779337	      0.00000000	    -16.40532094	     -0.90891757	    -13.86357466	      8.28131383	      0.14453619	      4.69188538	     15.04774284	      0.00000000	     13.81848251	      1.37440917	     -4.61090942	     43.93487515	    -16.11551679	     43.93487515	     75.18283277	     44.99581628	      0.00000000	      0.00000000	     43.93487515	    -16.11551679	     43.93487515	     75.18283277	     44.99581628	      0.00000000	      0.00000000
      1.25000000	     -4.95886342	      0.53306336	      9.37627632	      0.98372975	      0.88808831	      0.20020948	     30.78163493	     -7.62518031	    -27.27736027	      7.21882904	      0.12599233	     -1.98626114	     10.37778632	      0.00000000	    -16.94847998	     -1.50940549	    -13.72600550	      8.58644340	      0.14986171	      4.09264095	     14.71557776	      0.00000000	     13.61524654	      1.71054763	     -5.13093883	     43.93776796	    -16.11051270	     43.93776796	     75.18123061	     44.99591739	      0.00000000	      0.00000000	     43.93776796	    -16.11051270	     43.93776796	     75.18123061	     44.99591739	      0.00000000	      0.00000000
      1.25500000	     -4.72962478	      0.26818646	      9.49523814	      0.99152631	      0.88801789	      0.20048940	     30.37950799	     -7.33290377	    -27.02166857	      7.60542286	      0.13273967	     -2.44966818	      9.47116420	      0.00000000	    -17.39778473	     -2.01884832	    -13.64132681	      8.98537834	      0.15682444	      3.45784094	     14.38068189	      0.00000000	     13.48029100	      2.05706444	     -5.44341216	     43.93954928	    -16.10743573	     43.93954928	     75.18024886	     44.99597858	      0.00000000	      0.00000000	     43.93954928	    -16.10743573	     43.93954928	     75.18024886	     44.99597858	      0.00000000	      0.00000000
      1.26000000	     -4.51006520	     -0.00506911	      9.56011874	      0.99943954	      0.88801341	      0.20089965	     30.00124215	     -7.01741180	    -26.81789586	      8.05197655	      0.14053350	     -2.95659786	      8.69326131	      0.00000000	    -17.81718021	     -2.52801010	    -13.61275519	      9.42100553	      0.16442757	      2.69156648	     14.00752537	      0.00000000	     13.37600591	      2.39082000	     -5.70554435	     43.94058894	    -16.10564149	     43.94058894	     75.17967764	     44.99601390	      0.00000000	      0.00000000	     43.94058894	    -16.10564149	     43.94058894	     75.17967764	     44.99601390	      0.00000000	      0.00000000
      1.26500000	     -4.32510083	     -0.26192823	      9.62180519	      1.00742769	      0.88803749	      0.20130274	     29.66649341	     -6.74640789	    -26.63333492	      8.56892405	      0.14955594	     -3.45841064	      8.07621579	      0.00000000	    -18.17557438	     -3.01707514	    -13.67049708	      9.88119993	      0.17245947	      1.82716338	     13.62042512	      0.00000000	     13.31258831	      2.73125628	     -5.93607423	     43.94105792	    -16.10483257	     43.94105792	     75.17942041	     44.99602974	      0.00000000	      0.00000000	     43.94105792	    -16.10483257	     43.94105792	     75.17942041	     44.99602974	      0.00000000	      0.00000000
